<svg width="256" height="256" viewBox="0 0 256 256" fill="none" xmlns="http://www.w3.org/2000/svg">
<rect width="256" height="256" rx="40" fill="white"/>
<path d="M233.813 216.234C227.669 226.986 213.845 230.741 203.093 224.426C192.341 218.282 188.587 204.458 194.901 193.706C201.045 182.954 214.869 179.2 225.621 185.514C236.373 191.658 239.957 205.312 233.813 216.234ZM61.2694 216.405C55.1254 227.157 41.3014 230.912 30.5494 224.597C19.7974 218.283 16.0428 204.629 22.3574 193.877C28.5014 183.125 42.3254 179.37 53.0774 185.685C63.8294 191.829 67.4134 205.653 61.2694 216.405ZM151.381 60.0745L143.872 73.0452C137.728 83.7972 123.904 87.5518 113.152 81.2372C102.4 75.0932 98.6454 61.2692 104.96 50.5172L112.469 37.5465C118.613 26.7945 132.437 23.0398 143.189 29.3545C153.941 35.4985 157.696 49.3225 151.381 60.0745ZM195.925 129.194L158.379 194.219C152.235 204.971 138.411 208.725 127.659 202.41C116.907 196.266 113.152 182.443 119.467 171.691L157.013 106.666C163.157 95.9145 176.981 92.1598 187.733 98.4745C198.485 104.618 202.24 118.442 195.925 129.194ZM112.128 124.245L89.6001 163.328C83.4561 174.08 69.6321 177.835 58.8801 171.52C48.1281 165.376 44.3734 151.552 50.6881 140.8L73.2161 101.717C79.3601 90.9652 93.1841 87.2105 103.936 93.5252C114.688 99.6692 118.272 113.493 112.128 124.245Z" fill="#2C2C2C"/>
</svg>
